# xmcd
#
# Track frame offsets:
#	150
#	14462
#	32477
#	46442
#	61587
#	74765
#	91297
#	109407
#	123142
#	135905
#
# Disc length: 2052 seconds
#
# Revision: 3
# Processed by: cddbd v1.5.2PL0 Copyright (c) Steve Scherf et al.
# Submitted via: audiograbber 1.83.01
#
DISCID=8008020a
DTITLE=Various Artist - Greatest Country Hits Of The 90's- 1990 Vol. 2
DYEAR=1991
DGENRE=Country
TTITLE0=Ricky Skaggs - Hummingbird
TTITLE1=Shelby Lynne - Things Are Tough All Over
TTITLE2=Willie Nelson - Ain't Necessarily So
TTITLE3=Joe Diffie - Home
TTITLE4=Doug Stone - Fourteen Minutes Old
TTITLE5=Shenandoah - Next To You, Next To Me
TTITLE6=Mary- Chapin Carpenter - You Win Again
TTITLE7=Richy Van Shelton - I Ment Every Word He Said
TTITLE8=Rodney Crowell - My Past Is Present
TTITLE9=Vern Gosdin - That Just About Does It
EXTD=YEAR: 1991
EXTT0=
EXTT1=
EXTT2=
EXTT3=
EXTT4=
EXTT5=
EXTT6=
EXTT7=
EXTT8=
EXTT9=
PLAYORDER=
